# Blender v3.0.1 OBJ File: 'goomba.blend'
# www.blender.org
mtllib goomba.mtl
o Goomba_polygon0
v 0.728798 1.789538 -0.399765
v 1.006250 1.000755 0.008164
v 0.728798 1.789538 0.405133
v 0.882664 1.002066 0.529869
v 0.422832 1.338420 0.789980
v 0.455045 1.002066 0.856943
v -0.422860 1.338420 0.789980
v -0.456286 1.002066 0.857437
v -0.883423 1.002066 0.529810
v -0.483963 0.596110 0.717583
v -0.887219 0.592236 0.008112
v -0.282089 0.403626 0.008112
v -0.483963 0.596111 -0.701359
v -0.000014 0.403626 -0.404388
v 0.483934 0.596111 -0.701359
v 0.282060 0.403626 0.008112
v 0.887190 0.592236 0.008112
v 0.483934 0.596110 0.717583
v -0.000014 1.789538 0.600089
v -0.728827 1.789538 0.405133
v -1.006250 1.000755 0.007939
v -0.882585 1.002066 -0.513761
v -0.454922 1.002066 -0.840790
v 0.456145 1.002066 -0.841250
v 0.883340 1.002066 -0.513681
v 0.422832 1.338420 -0.773793
v -0.000014 1.789538 -0.594721
v -0.728827 1.789538 -0.399765
v -0.422860 1.338420 -0.773793
v -0.000014 0.403626 0.420016
v -1.673760 -0.007356 -0.330947
v -1.827336 0.365713 0.001732
v -1.673760 -0.007356 0.334412
v -1.614249 0.366607 0.538568
v -1.221050 -0.006043 0.625648
v -1.221049 0.365713 0.707703
v -0.391871 -0.006043 0.577724
v -0.391871 0.365713 0.616242
v -0.028160 0.366607 0.001732
v -0.198627 0.692188 0.001732
v -0.391871 0.365712 -0.612778
v -0.933285 0.758587 -0.460895
v -1.221049 0.365713 -0.704239
v -1.403467 0.692387 -0.506625
v -1.614249 0.366607 -0.535104
v -1.567435 0.757951 0.001732
v -1.403467 0.692387 0.521068
v -0.000014 1.603253 1.602281
v -0.980252 1.574048 -1.390944
v -1.354708 1.568288 1.104729
v -1.911025 1.664361 0.123603
v -1.904019 2.044374 1.145141
v -2.220876 2.046536 0.256400
v -2.257407 2.628907 0.521995
v -2.087670 2.628864 -1.075601
v -1.736254 3.267467 -0.890301
v -0.757206 3.266608 -1.637890
v -1.420543 3.911538 -0.754138
v -0.480350 4.457430 -1.062595
v -0.690174 4.903205 -0.168399
v 0.000000 4.832717 -0.775467
v 0.000000 5.054347 -0.053715
v 0.690175 4.903203 -0.168399
v 0.449389 4.902956 0.573105
v 1.190982 4.456258 0.047201
v 0.717168 4.457430 0.976319
v 1.536040 3.913585 0.372705
v 0.391871 -0.006043 -0.574260
v 1.221050 -0.006043 -0.622184
v 1.221050 0.365713 -0.704239
v 1.614249 0.366607 -0.535104
v 1.403467 0.692387 -0.506625
v 1.567435 0.757951 0.001732
v 1.221050 0.844288 0.001732
v 1.403467 0.692387 0.521068
v 0.933285 0.758587 0.475338
v 1.221050 0.365713 0.707703
v 0.391871 0.365713 0.616242
v 0.391871 -0.006043 0.577724
v 0.028160 0.366607 0.001732
v 0.127918 -0.007356 0.001732
v -2.055042 2.041224 -1.015684
v -1.020676 2.049481 -1.796243
v 0.000000 2.042082 -1.894606
v -0.910464 2.628903 -1.924052
v 0.910464 2.628903 -1.924052
v 0.757206 3.266608 -1.637890
v 1.736254 3.267467 -0.890301
v 1.420543 3.910587 -0.792640
v 1.877419 3.264625 0.449449
v 2.087670 2.628864 -1.075601
v 2.257408 2.628907 0.521995
v 2.220876 2.046536 0.256400
v 1.904019 2.044374 1.145141
v 1.911025 1.664361 0.123603
v 1.354709 1.568288 1.104729
v 0.980253 1.574048 -1.390944
v -0.188902 3.878347 1.477880
v -0.181068 3.786622 1.526414
v -0.335401 4.003192 1.376711
v -0.382172 3.912487 1.410005
v -0.867256 4.701293 0.886060
v -1.013239 4.505039 0.871755
v -1.105150 4.800687 0.646720
v -1.343389 4.550008 0.544673
v -1.407804 4.761348 0.348146
v -1.636082 4.403258 0.180575
v 0.894919 3.913500 1.268512
v 1.130516 3.266608 1.593398
v 0.000000 3.266608 1.774800
v 0.000000 2.628903 2.077776
v -1.130515 3.266608 1.593398
v -1.359331 2.628903 1.864825
v -1.877419 3.264625 0.449449
v -1.221049 0.844288 0.001732
v -0.545751 0.806547 0.007222
v -0.933285 0.758587 0.475338
v -1.536039 3.913585 0.372705
v -1.190981 4.456258 0.047201
v -0.717167 4.457430 0.976319
v -0.449388 4.902959 0.573105
v -0.894918 3.913500 1.268512
v 0.000000 3.913500 1.493495
v -1.221050 -0.006043 -0.622184
v -0.391871 -0.006043 -0.574260
v -0.127918 -0.007356 0.001732
v 0.480351 4.457430 -1.062595
v 1.020676 2.049481 -1.796243
v 0.391871 0.365712 -0.612778
v 0.933285 0.758587 -0.460895
v 1.031763 2.042082 1.946250
v 1.359331 2.628903 1.864825
v -1.031763 2.042082 1.946250
v 1.673760 -0.007356 -0.330947
v 1.827336 0.365713 0.001732
v 1.673760 -0.007356 0.334412
v 1.614249 0.366607 0.538568
v 0.198627 0.692188 0.001732
v 0.545751 0.806547 0.007222
v 2.055042 2.041224 -1.015684
v 0.000000 4.457430 1.086452
v 1.343390 4.550008 0.544673
v 1.013240 4.505039 0.871755
v 1.105151 4.800684 0.646721
v 0.867257 4.701293 0.886060
v 1.221050 -0.006043 0.625648
v 0.335401 4.003192 1.376711
v 0.382173 3.912484 1.410005
v 0.188903 3.878345 1.477880
v 0.181069 3.786622 1.526414
v 1.636083 4.403258 0.180575
v 1.407804 4.761345 0.348146
vt 0.707581 0.241516
vt 0.735962 0.110474
vt 0.707581 0.241516
vt 0.722107 0.110657
vt 0.682007 0.170471
vt 0.689026 0.110657
vt 0.563843 0.170471
vt 0.556824 0.110657
vt 0.523804 0.110657
vt 0.558472 0.046692
vt 0.531433 0.046082
vt 0.592468 0.023193
vt 0.558472 0.046692
vt 0.622925 0.023193
vt 0.687439 0.046692
vt 0.653442 0.023193
vt 0.714417 0.046082
vt 0.687439 0.046692
vt 0.622925 0.241516
vt 0.538269 0.241516
vt 0.509949 0.110474
vt 0.523804 0.110657
vt 0.556824 0.110657
vt 0.689026 0.110657
vt 0.722107 0.110657
vt 0.682007 0.170471
vt 0.622925 0.241516
vt 0.538269 0.241516
vt 0.563843 0.170471
vt 0.622925 0.023193
vt 0.551331 0.263855
vt 0.512817 0.357422
vt 0.551331 0.263855
vt 0.566223 0.357666
vt 0.664856 0.264221
vt 0.664856 0.357422
vt 0.872803 0.264221
vt 0.872803 0.357422
vt 0.963989 0.357666
vt 0.921265 0.439270
vt 0.872803 0.357422
vt 0.737000 0.455933
vt 0.664856 0.357422
vt 0.619080 0.439331
vt 0.566223 0.357666
vt 0.578003 0.455811
vt 0.619080 0.439331
vt 0.439697 0.021790
vt 0.458130 0.021790
vt 0.436035 0.029846
vt 0.446960 0.046692
vt 0.439392 0.151245
vt 0.445984 0.151855
vt 0.443970 0.312195
vt 0.455811 0.312134
vt 0.454407 0.487915
vt 0.459961 0.487671
vt 0.453430 0.665222
vt 0.455689 0.815491
vt 0.449097 0.938171
vt 0.453552 0.918762
vt 0.448242 0.979797
vt 0.449097 0.938171
vt 0.443604 0.938110
vt 0.447510 0.815125
vt 0.440613 0.815491
vt 0.445068 0.665771
vt 0.664734 0.357422
vt 0.664734 0.264221
vt 0.873047 0.264221
vt 0.565918 0.357666
vt 0.618896 0.439331
vt 0.577698 0.455811
vt 0.664734 0.477417
vt 0.618896 0.439331
vt 0.737000 0.455933
vt 0.664734 0.357422
vt 0.873047 0.357422
vt 0.873047 0.264221
vt 0.964417 0.357666
vt 0.939392 0.263855
vt 0.455322 0.150391
vt 0.461121 0.152649
vt 0.461853 0.150635
vt 0.462036 0.312134
vt 0.462036 0.312134
vt 0.459961 0.487671
vt 0.454407 0.487915
vt 0.453674 0.664978
vt 0.444519 0.487122
vt 0.455811 0.312134
vt 0.443970 0.312195
vt 0.445984 0.151855
vt 0.439392 0.151245
vt 0.446960 0.046692
vt 0.439697 0.021790
vt 0.458130 0.021790
vt 0.788757 0.176453
vt 0.767944 0.132751
vt 0.754333 0.162170
vt 0.795227 0.073975
vt 0.875977 0.206116
vt 0.883789 0.042358
vt 0.919922 0.221558
vt 0.966797 0.036377
vt 0.959717 0.226807
vt 0.994934 0.147095
vt 0.192017 0.698486
vt 0.335266 0.690552
vt 0.156555 0.857788
vt 0.246765 0.509094
vt 0.006047 0.509094
vt 0.006047 0.322327
vt 0.246226 0.509094
vt 0.341488 0.322327
vt 0.413513 0.503601
vt 0.498628 0.318604
vt 0.664856 0.477417
vt 0.834167 0.467957
vt 0.737000 0.455933
vt 0.444519 0.487122
vt 0.445068 0.665771
vt 0.447510 0.815125
vt 0.440613 0.815491
vt 0.443604 0.938110
vt 0.337041 0.690552
vt 0.190046 0.698486
vt 0.006047 0.698486
vt 0.664856 0.264221
vt 0.872803 0.264221
vt 0.822998 0.515076
vt 0.964050 0.873901
vt 0.964050 0.624329
vt 0.822998 0.983093
vt 0.571106 0.533081
vt 0.571106 0.965149
vt 0.488831 0.749085
vt 0.455689 0.815491
vt 0.461121 0.152649
vt 0.873047 0.357422
vt 0.737000 0.455933
vt 0.468384 0.192566
vt 0.272766 0.126831
vt 0.231689 0.022705
vt 0.339600 0.322327
vt 0.492737 0.318604
vt 0.409790 0.503601
vt 0.473639 0.192566
vt 0.272907 0.126831
vt 0.230756 0.022705
vt 0.006047 0.021973
vt 0.550964 0.263855
vt 0.512390 0.357422
vt 0.550964 0.263855
vt 0.565918 0.357666
vt 0.921631 0.439270
vt 0.834412 0.467957
vt 0.455322 0.150391
vt 0.006047 0.857788
vt 0.100647 0.988220
vt 0.153658 0.857788
vt 0.919922 0.221558
vt 0.883789 0.042358
vt 0.966797 0.036377
vt 0.875977 0.206116
vt 0.822998 0.515076
vt 0.571106 0.965149
vt 0.822998 0.983093
vt 0.571106 0.533081
vt 0.788757 0.176453
vt 0.795227 0.073975
vt 0.938965 0.263855
vt 0.096288 0.988220
vt 0.964050 0.624329
vt 0.964050 0.873901
vt 0.664734 0.264221
vt 0.767944 0.132751
vt 0.754333 0.162170
vt 0.959717 0.226807
vt 0.994934 0.147095
vt 0.488831 0.749085
vn 0.7682 0.3973 0.5020
vn 0.9999 -0.0108 0.0009
vn 0.7674 0.3901 -0.5087
vn 0.8404 -0.0820 0.5357
vn 0.2916 0.3204 0.9012
vn 0.3083 -0.0392 0.9505
vn -0.2913 0.3213 0.9011
vn -0.3091 -0.0389 0.9502
vn -0.8409 -0.0819 0.5350
vn -0.3565 -0.6562 0.6650
vn -0.7252 -0.6886 -0.0002
vn -0.1975 -0.9803 0.0000
vn -0.3570 -0.6555 -0.6655
vn 0.0000 -0.9634 -0.2679
vn 0.3565 -0.6561 -0.6651
vn 0.1975 -0.9803 0.0000
vn 0.7252 -0.6886 0.0002
vn 0.3570 -0.6555 0.6654
vn 0.0000 0.4874 0.8731
vn -0.7681 0.3976 0.5019
vn -0.9999 -0.0108 -0.0003
vn -0.8402 -0.0844 -0.5356
vn -0.3081 -0.0394 -0.9505
vn 0.3089 -0.0390 -0.9503
vn 0.8407 -0.0844 -0.5349
vn 0.2908 0.3130 -0.9041
vn 0.0000 0.4707 -0.8823
vn -0.7675 0.3899 -0.5087
vn -0.2912 0.3121 -0.9043
vn 0.0000 -0.9635 0.2676
vn -0.6220 -0.7070 0.3366
vn -0.9863 0.1650 0.0003
vn -0.6220 -0.7070 -0.3366
vn -0.7179 0.1225 0.6852
vn -0.1474 -0.7348 0.6621
vn -0.1308 0.1158 0.9846
vn 0.4267 -0.6536 0.6251
vn 0.5160 0.2709 0.8126
vn 0.9918 0.1279 0.0000
vn 0.6665 0.7455 -0.0014
vn 0.5140 0.2741 -0.8128
vn 0.1039 0.8191 -0.5642
vn -0.1316 0.1271 -0.9831
vn -0.3810 0.7093 -0.5931
vn -0.7147 0.1272 -0.6877
vn -0.6061 0.7954 -0.0010
vn -0.3846 0.7011 0.6004
vn -0.3052 -0.9055 0.2948
vn -0.2136 -0.8799 -0.4244
vn 0.0000 -0.8941 0.4478
vn -0.5251 -0.8509 0.0136
vn -0.7779 -0.3776 0.5022
vn -0.9240 -0.3738 0.0801
vn -0.9492 0.2188 0.2258
vn -0.8433 0.2131 -0.4934
vn -0.7544 0.5030 -0.4216
vn -0.2718 0.4566 -0.8471
vn -0.7275 0.5362 -0.4280
vn -0.2922 0.6217 -0.7267
vn -0.4693 0.8690 -0.1570
vn 0.0000 0.8414 -0.5403
vn 0.0000 0.9983 -0.0579
vn 0.4675 0.8703 -0.1552
vn 0.2933 0.8668 0.4032
vn 0.7446 0.6656 0.0508
vn 0.4401 0.6468 0.6227
vn 0.8223 0.5260 0.2170
vn 0.1316 0.1271 -0.9831
vn 0.1474 -0.7348 -0.6621
vn -0.4267 -0.6536 -0.6251
vn 0.7147 0.1272 -0.6877
vn 0.3810 0.7093 -0.5931
vn 0.6061 0.7954 -0.0010
vn 0.1077 0.9942 -0.0024
vn 0.3846 0.7011 0.6004
vn -0.1057 0.8137 0.5716
vn 0.1308 0.1158 0.9846
vn -0.5160 0.2709 0.8126
vn -0.4267 -0.6536 0.6251
vn -0.9918 0.1279 0.0000
vn -0.6926 -0.7213 0.0000
vn -0.7783 -0.4503 -0.4375
vn -0.3441 -0.3843 -0.8567
vn 0.0000 -0.4222 -0.9065
vn -0.3044 0.1624 -0.9386
vn 0.3077 0.1661 -0.9369
vn 0.2744 0.4499 -0.8498
vn 0.7598 0.4914 -0.4256
vn 0.7231 0.5312 -0.4415
vn 0.8420 0.4977 0.2080
vn 0.8412 0.2163 -0.4956
vn 0.9492 0.2191 0.2255
vn 0.9240 -0.3738 0.0801
vn 0.7779 -0.3776 0.5022
vn 0.5251 -0.8509 0.0136
vn 0.3052 -0.9055 0.2948
vn 0.2136 -0.8799 -0.4244
vn -0.2286 0.4375 0.8697
vn -0.2267 0.4393 0.8692
vn -0.2246 0.4407 0.8691
vn -0.2478 0.4262 0.8700
vn -0.5120 0.3339 0.7914
vn -0.5410 0.3222 0.7768
vn -0.6353 0.3547 0.6860
vn -0.7111 0.3288 0.6215
vn -0.7513 0.3119 0.5816
vn -0.8011 0.2580 0.5400
vn 0.4646 0.5182 0.7181
vn 0.4624 0.4970 0.7343
vn 0.0000 0.4337 0.9010
vn 0.0000 0.1514 0.9885
vn -0.4624 0.4970 0.7343
vn -0.5428 0.1886 0.8184
vn -0.8418 0.4978 0.2084
vn -0.1077 0.9942 -0.0024
vn 0.2378 0.9713 0.0042
vn 0.1057 0.8137 0.5716
vn -0.8223 0.5263 0.2165
vn -0.7449 0.6655 0.0472
vn -0.4401 0.6468 0.6227
vn -0.2933 0.8668 0.4032
vn -0.4646 0.5182 0.7181
vn 0.0000 0.4787 0.8779
vn -0.1474 -0.7348 -0.6621
vn 0.4267 -0.6536 -0.6251
vn 0.6926 -0.7213 0.0000
vn 0.2847 0.6243 -0.7275
vn 0.3441 -0.3843 -0.8567
vn -0.5140 0.2741 -0.8128
vn -0.1039 0.8191 -0.5642
vn 0.3021 -0.4349 0.8483
vn 0.5428 0.1886 0.8184
vn -0.3021 -0.4349 0.8483
vn 0.6220 -0.7070 -0.3366
vn 0.9863 0.1650 0.0003
vn 0.6220 -0.7070 0.3366
vn 0.7179 0.1225 0.6852
vn -0.6665 0.7455 -0.0014
vn -0.2378 0.9713 0.0042
vn 0.7783 -0.4503 -0.4375
vn 0.0000 0.6611 0.7503
vn 0.6353 0.3547 0.6860
vn 0.5303 0.3222 0.7841
vn 0.7111 0.3288 0.6215
vn 0.5112 0.3221 0.7968
vn 0.1474 -0.7348 0.6621
vn 0.2783 0.4373 0.8551
vn 0.2529 0.4456 0.8587
vn 0.2267 0.4393 0.8692
vn 0.2246 0.4407 0.8691
vn 0.7513 0.3119 0.5816
vn 0.8011 0.2580 0.5400
usemtl kuribo_all
s 1
f 3/1/1 2/2/2 1/3/3
f 4/4/4 2/2/2 3/1/1
f 5/5/5 4/4/4 3/1/1
f 6/6/6 4/4/4 5/5/5
f 7/7/7 6/6/6 5/5/5
f 8/8/8 6/6/6 7/7/7
f 9/9/9 8/8/8 7/7/7
f 10/10/10 8/8/8 9/9/9
f 11/11/11 10/10/10 9/9/9
f 12/12/12 10/10/10 11/11/11
f 13/13/13 12/12/12 11/11/11
f 14/14/14 12/12/12 13/13/13
f 15/15/15 14/14/14 13/13/13
f 16/16/16 14/14/14 15/15/15
f 17/17/17 16/16/16 15/15/15
f 18/18/18 16/16/16 17/17/17
f 4/4/4 18/18/18 17/17/17
f 6/6/6 18/18/18 4/4/4
f 19/19/19 5/5/5 3/1/1
f 7/7/7 5/5/5 19/19/19
f 20/20/20 7/7/7 19/19/19
f 9/9/9 7/7/7 20/20/20
f 21/21/21 9/9/9 20/20/20
f 11/11/11 9/9/9 21/21/21
f 22/22/22 11/11/11 21/21/21
f 13/13/13 11/11/11 22/22/22
f 23/23/23 13/13/13 22/22/22
f 15/15/15 13/13/13 23/23/23
f 24/24/24 15/15/15 23/23/23
f 25/25/25 15/15/15 24/24/24
f 26/26/26 25/25/25 24/24/24
f 1/3/3 25/25/25 26/26/26
f 27/27/27 1/3/3 26/26/26
f 28/28/28 21/21/21 20/20/20
f 22/22/22 21/21/21 28/28/28
f 29/29/29 22/22/22 28/28/28
f 23/23/23 22/22/22 29/29/29
f 26/26/26 23/23/23 29/29/29
f 24/24/24 23/23/23 26/26/26
f 16/16/16 12/12/12 14/14/14
f 30/30/30 12/12/12 16/16/16
f 18/18/18 30/30/30 16/16/16
f 10/10/10 30/30/30 18/18/18
f 8/8/8 10/10/10 18/18/18
f 2/2/2 25/25/25 1/3/3
f 17/17/17 25/25/25 2/2/2
f 4/4/4 17/17/17 2/2/2
f 29/29/29 27/27/27 26/26/26
f 28/28/28 27/27/27 29/29/29
f 25/25/25 17/17/17 15/15/15
f 10/10/10 12/12/12 30/30/30
f 6/6/6 8/8/8 18/18/18
f 33/31/31 32/32/32 31/33/33
f 34/34/34 32/32/32 33/31/31
f 35/35/35 34/34/34 33/31/31
f 36/36/36 34/34/34 35/35/35
f 37/37/37 36/36/36 35/35/35
f 38/38/38 36/36/36 37/37/37
f 39/39/39 38/38/38 37/37/37
f 40/40/40 38/38/38 39/39/39
f 41/41/41 40/40/40 39/39/39
f 42/42/42 40/40/40 41/41/41
f 43/43/43 42/42/42 41/41/41
f 44/44/44 42/42/42 43/43/43
f 45/45/45 44/44/44 43/43/43
f 46/46/46 44/44/44 45/45/45
f 32/32/32 46/46/46 45/45/45
f 47/47/47 46/46/46 32/32/32
f 34/34/34 47/47/47 32/32/32
f 36/36/36 47/47/47 34/34/34
f 50/48/48 49/49/49 48/50/50
f 51/51/51 49/49/49 50/48/48
f 52/52/52 51/51/51 50/48/48
f 53/53/53 51/51/51 52/52/52
f 54/54/54 53/53/53 52/52/52
f 55/55/55 53/53/53 54/54/54
f 56/56/56 55/55/55 54/54/54
f 57/57/57 55/55/55 56/56/56
f 58/58/58 57/57/57 56/56/56
f 59/59/59 57/57/57 58/58/58
f 60/60/60 59/59/59 58/58/58
f 61/61/61 59/59/59 60/60/60
f 62/62/62 61/61/61 60/60/60
f 63/63/63 61/61/61 62/62/62
f 64/64/64 63/63/63 62/62/62
f 65/65/65 63/63/63 64/64/64
f 66/66/66 65/65/65 64/64/64
f 67/67/67 65/65/65 66/66/66
f 70/68/68 69/69/69 68/70/70
f 71/71/71 69/69/69 70/68/68
f 72/72/72 71/71/71 70/68/68
f 73/73/73 71/71/71 72/72/72
f 74/74/74 73/73/73 72/72/72
f 75/75/75 73/73/73 74/74/74
f 76/76/76 75/75/75 74/74/74
f 77/77/77 75/75/75 76/76/76
f 78/78/78 77/77/77 76/76/76
f 79/79/79 77/77/77 78/78/78
f 80/80/80 79/79/79 78/78/78
f 81/81/81 79/79/79 80/80/80
f 68/70/70 81/81/81 80/80/80
f 82/82/82 51/51/51 53/53/53
f 49/49/49 51/51/51 82/82/82
f 83/83/83 49/49/49 82/82/82
f 84/84/84 49/49/49 83/83/83
f 85/85/85 84/84/84 83/83/83
f 86/86/86 84/84/84 85/85/85
f 87/87/87 86/86/86 85/85/85
f 88/88/88 86/86/86 87/87/87
f 89/89/89 88/88/88 87/87/87
f 67/67/67 88/88/88 89/89/89
f 65/65/65 67/67/67 89/89/89
f 90/90/90 88/88/88 67/67/67
f 91/91/91 88/88/88 90/90/90
f 92/92/92 91/91/91 90/90/90
f 93/93/93 91/91/91 92/92/92
f 94/94/94 93/93/93 92/92/92
f 95/95/95 93/93/93 94/94/94
f 96/96/96 95/95/95 94/94/94
f 97/97/97 95/95/95 96/96/96
f 48/50/50 97/97/97 96/96/96
f 49/49/49 97/97/97 48/50/50
f 100/98/98 99/99/99 98/100/100
f 101/101/101 99/99/99 100/98/98
f 102/102/102 101/101/101 100/98/98
f 103/103/103 101/101/101 102/102/102
f 104/104/104 103/103/103 102/102/102
f 105/105/105 103/103/103 104/104/104
f 106/106/106 105/105/105 104/104/104
f 107/107/107 105/105/105 106/106/106
f 108/108/108 67/109/67 66/110/66
f 109/111/109 67/109/67 108/108/108
f 110/112/110 109/111/109 108/108/108
f 111/113/111 109/111/109 110/112/110
f 112/114/112 111/113/111 110/112/110
f 113/115/113 111/113/111 112/114/112
f 114/116/114 113/115/113 112/114/112
f 54/117/54 113/115/113 114/116/114
f 115/118/115 44/44/44 46/46/46
f 42/42/42 44/44/44 115/118/115
f 116/119/116 42/42/42 115/118/115
f 40/40/40 42/42/42 116/119/116
f 117/120/117 40/40/40 116/119/116
f 38/38/38 40/40/40 117/120/117
f 36/36/36 38/38/38 117/120/117
f 114/121/114 56/56/56 54/54/54
f 58/58/58 56/56/56 114/121/114
f 118/122/118 58/58/58 114/121/114
f 119/123/119 58/58/58 118/122/118
f 120/124/120 119/123/119 118/122/118
f 121/125/121 119/123/119 120/124/120
f 112/114/112 118/126/118 114/116/114
f 122/127/122 118/126/118 112/114/112
f 110/112/110 122/127/122 112/114/112
f 123/128/123 122/127/122 110/112/110
f 108/108/108 123/128/123 110/112/110
f 66/110/66 123/128/123 108/108/108
f 45/45/45 31/33/33 32/32/32
f 124/129/124 31/33/33 45/45/45
f 43/43/43 124/129/124 45/45/45
f 125/130/125 124/129/124 43/43/43
f 41/41/41 125/130/125 43/43/43
f 39/39/39 125/130/125 41/41/41
f 124/131/124 33/132/31 31/133/33
f 35/134/35 33/132/31 124/131/124
f 125/135/125 35/134/35 124/131/124
f 37/136/37 35/134/35 125/135/125
f 126/137/126 37/136/37 125/135/125
f 89/89/89 63/63/63 65/65/65
f 127/138/127 63/63/63 89/89/89
f 87/87/87 127/138/127 89/89/89
f 59/59/59 127/138/127 87/87/87
f 57/57/57 59/59/59 87/87/87
f 84/84/84 97/97/97 49/49/49
f 128/139/128 97/97/97 84/84/84
f 86/86/86 128/139/128 84/84/84
f 91/91/91 128/139/128 86/86/86
f 88/88/88 91/91/91 86/86/86
f 129/140/129 68/70/70 80/80/80
f 70/68/68 68/70/70 129/140/129
f 130/141/130 70/68/68 129/140/129
f 72/72/72 70/68/68 130/141/130
f 74/74/74 72/72/72 130/141/130
f 94/142/94 131/143/131 96/144/96
f 132/145/132 131/143/131 94/142/94
f 92/146/92 132/145/132 94/142/94
f 90/147/90 132/145/132 92/146/92
f 132/145/132 111/113/111 131/143/131
f 109/111/109 111/113/111 132/145/132
f 90/147/90 109/111/109 132/145/132
f 67/109/67 109/111/109 90/147/90
f 52/148/52 113/115/113 54/117/54
f 133/149/133 113/115/113 52/148/52
f 50/150/48 133/149/133 52/148/52
f 48/151/50 133/149/133 50/150/48
f 133/149/133 111/113/111 113/115/113
f 131/143/131 111/113/111 133/149/133
f 48/151/50 131/143/131 133/149/133
f 96/144/96 131/143/131 48/151/50
f 71/71/71 134/152/134 69/69/69
f 135/153/135 134/152/134 71/71/71
f 73/73/73 135/153/135 71/71/71
f 75/75/75 135/153/135 73/73/73
f 135/153/135 136/154/136 134/152/134
f 137/155/137 136/154/136 135/153/135
f 75/75/75 137/155/137 135/153/135
f 77/77/77 137/155/137 75/75/75
f 76/76/76 138/156/138 78/78/78
f 139/157/139 138/156/138 76/76/76
f 74/74/74 139/157/139 76/76/76
f 130/141/130 139/157/139 74/74/74
f 47/47/47 115/118/115 46/46/46
f 117/120/117 115/118/115 47/47/47
f 36/36/36 117/120/117 47/47/47
f 55/55/55 82/82/82 53/53/53
f 83/83/83 82/82/82 55/55/55
f 85/85/85 83/83/83 55/55/55
f 140/158/140 97/97/97 128/139/128
f 95/95/95 97/97/97 140/158/140
f 93/93/93 95/95/95 140/158/140
f 141/159/141 66/110/66 64/160/64
f 123/128/123 66/110/66 141/159/141
f 120/161/120 123/128/123 141/159/141
f 144/162/142 143/163/143 142/164/144
f 145/165/145 143/163/143 144/162/142
f 127/138/127 61/61/61 63/63/63
f 59/59/59 61/61/61 127/138/127
f 146/166/146 68/167/70 69/168/69
f 79/169/79 68/167/70 146/166/146
f 147/170/147 143/163/143 145/165/145
f 148/171/148 143/163/143 147/170/147
f 85/85/85 57/57/57 87/87/87
f 55/55/55 57/57/57 85/85/85
f 126/172/126 39/39/39 37/37/37
f 125/130/125 39/39/39 126/172/126
f 91/91/91 140/158/140 128/139/128
f 93/93/93 140/158/140 91/91/91
f 62/62/62 121/125/121 64/64/64
f 60/60/60 121/125/121 62/62/62
f 141/159/141 121/173/121 120/161/120
f 64/160/64 121/173/121 141/159/141
f 119/123/119 60/60/60 58/58/58
f 121/125/121 60/60/60 119/123/119
f 136/174/136 69/168/69 134/175/134
f 146/166/146 69/168/69 136/174/136
f 122/127/122 120/161/120 118/126/118
f 123/128/123 120/161/120 122/127/122
f 137/155/137 146/176/146 136/154/136
f 77/77/77 146/176/146 137/155/137
f 150/177/149 147/170/147 149/178/150
f 148/171/148 147/170/147 150/177/149
f 152/179/151 142/164/144 151/180/152
f 144/162/142 142/164/144 152/179/151
f 130/141/130 138/156/138 139/157/139
f 129/140/129 138/156/138 130/141/130
f 138/156/138 80/80/80 78/78/78
f 129/140/129 80/80/80 138/156/138
f 81/181/81 68/167/70 79/169/79
f 115/118/115 117/120/117 116/119/116
f 77/77/77 79/79/79 146/176/146
